<svg width="222" height="48" viewBox="0 0 222 48" fill="none" xmlns="http://www.w3.org/2000/svg">
<mask id="mask0_175_706" style="mask-type:luminance" maskUnits="userSpaceOnUse" x="0" y="0" width="222" height="48">
<path d="M221.104 0H0V47.5115H221.104V0Z" fill="white"/>
</mask>
<g mask="url(#mask0_175_706)">
<path d="M131.622 28.7364C130.942 21.5612 124.91 16.1459 118.183 16.0319V1.42507C118.183 1.03317 117.525 0.655533 117.228 0.391896C116.932 0.12826 116.295 4.42933e-06 115.897 0.035631C112.346 0.363395 108.852 1.36094 105.749 3.01401C102.755 4.61008 100.071 6.73342 97.9011 9.34128C95.7311 11.942 94.0819 14.8848 93.062 18.0983C92.006 21.4187 91.6226 24.8744 91.9554 28.373C92.223 31.2088 93.0476 33.9093 94.4219 36.4032C95.7456 38.8044 97.5105 40.9064 99.6732 42.6592C101.829 44.4049 104.266 45.7088 106.921 46.5354C109.026 47.1909 111.188 47.5187 113.373 47.5187C114.046 47.5187 114.718 47.4902 115.398 47.426C120.027 46.9985 124.461 44.8253 127.427 41.2983C130.393 37.7713 132.034 33.3108 131.6 28.7506M124.997 39.517C122.516 42.4668 119.007 44.2909 115.131 44.6472C112.628 44.8752 110.154 44.6187 107.767 43.8776C105.46 43.158 103.34 42.0251 101.46 40.5074C97.5973 37.3794 95.2103 32.983 94.7546 28.1236C94.4581 24.9956 94.7836 21.9103 95.7311 18.9462C96.6425 16.0818 98.0819 13.4526 100.02 11.1297C103.384 7.09681 107.933 4.37494 113.033 3.27765C113.763 3.17077 114.364 3.76929 114.364 4.49607C114.364 5.22285 113.735 5.83563 112.975 5.97814C111.615 6.25602 109.387 6.88305 107.29 8.20123C106.711 8.56462 106.537 9.32703 106.906 9.90418C107.16 10.2961 107.608 10.5027 108.056 10.4671C108.259 10.4528 108.454 10.3887 108.635 10.2747C110.176 9.30565 111.839 8.77838 113.004 8.50049C113.756 8.33661 114.349 8.99214 114.349 9.74742C114.349 10.5027 113.778 11.1369 113.04 11.2865C111.622 11.6143 109.489 12.3339 107.557 13.8587C107.022 14.2862 106.935 15.0558 107.369 15.5902C107.637 15.9179 108.042 16.0747 108.44 16.0462C108.679 16.0319 108.924 15.9393 109.127 15.7826C110.429 14.7565 111.876 14.1794 112.997 13.8587C113.749 13.6663 114.523 14.3005 114.523 15.07C114.523 15.7612 114.024 16.4096 113.51 16.602C108.852 17.9201 105.966 21.5256 105.293 25.8364C104.816 26.1998 104.317 26.6415 103.97 27.1332C103.427 25.7366 102.964 24.8246 102.914 24.7177C102.755 24.3757 102.321 24.2189 101.966 24.3828C101.619 24.5396 101.453 24.9457 101.612 25.2948C101.619 25.3091 102.292 26.7698 103.058 28.8931C102.914 29.3919 102.841 30.1828 102.841 30.7315C102.841 31.0948 102.877 32.071 102.943 32.071H103.934C104.273 33.0899 104.548 34.0091 104.765 35.028C104.035 34.9069 103.254 34.9425 102.624 35.427C101.836 36.0327 101.474 36.9162 101.597 37.8354C102.465 38.1703 103.492 38.0278 104.281 37.415C104.628 37.1442 104.888 36.8022 105.069 36.4317C105.221 37.4649 106.219 38.555 106.219 39.4243C106.219 39.802 107.832 40.2437 107.832 40.2437C107.832 40.2437 107.615 39.7948 107.615 39.4172C107.615 38.9327 107.138 38.3698 107.094 37.871C107.333 38.1133 107.398 38.2843 107.738 38.4268C108.657 38.8187 109.561 38.6548 110.32 38.1133C110.197 37.2012 109.554 36.3604 108.628 35.9686C107.912 35.6622 107.109 35.9472 106.443 36.2322C106.205 34.7287 105.807 33.0971 105.402 32.0781H105.807C106.393 33.0971 107.29 34.3511 108.447 35.313C110.407 36.9305 112.888 37.5575 115.442 37.3224C116.223 37.2511 116.794 36.503 116.722 35.7334C116.649 34.9639 115.955 34.3654 115.174 34.4366C113.38 34.6005 111.637 34.0518 110.263 32.9189C108.896 31.786 108.042 30.1757 107.876 28.3943C107.427 23.6275 111.015 19.3808 115.876 18.9319C122.132 18.3548 127.702 22.8936 128.28 29.0499C128.642 32.869 127.47 36.6027 124.989 39.5526" fill="white"/>
<path d="M116.91 27.7958C116.556 27.6391 116.143 27.7958 115.991 28.1379C115.746 28.6723 114.95 29.0285 114.133 28.9715C113.163 28.9074 112.91 28.3659 112.838 28.1379C112.729 27.7745 112.346 27.5607 111.977 27.6676C111.608 27.7745 111.391 28.1521 111.5 28.5155C111.803 29.5487 112.773 30.2469 114.031 30.3396C114.125 30.3396 114.219 30.3467 114.306 30.3467C115.615 30.3467 116.802 29.6912 117.257 28.6936C117.416 28.3445 117.257 27.9383 116.903 27.7887" fill="white"/>
<path d="M4.99813 22.3592C8.40497 22.3592 10.7919 24.7106 10.7919 27.7317C10.7919 30.7528 8.40497 33.1042 4.99813 33.1042H2.95114V36.6882C2.95114 37.586 2.38695 38.1418 1.47557 38.1418C0.564189 38.1418 0 37.586 0 36.6882V23.8199C0 22.9221 0.564189 22.3663 1.47557 22.3663H4.99813V22.3592ZM2.95114 25.0455V30.4179H4.99813C6.69793 30.4179 7.72505 29.4133 7.72505 27.7317C7.72505 26.0501 6.70517 25.0455 4.99813 25.0455H2.95114Z" fill="white"/>
<path d="M14.7631 29.5201C14.4883 29.7196 14.199 30.0759 13.6275 30.0759C12.9476 30.0759 12.3762 29.5201 12.3762 28.8432C12.3762 27.8386 14.1917 26.271 16.3544 26.271C18.8499 26.271 20.7812 28.259 20.7812 30.8597V36.6739C20.7812 37.5717 20.217 38.1275 19.4213 38.1275C18.17 38.1275 18.0615 37.0088 18.0615 37.0088H17.9674C17.9674 37.0088 17.3309 38.3484 15.6745 38.3484C13.519 38.3484 11.9277 36.7808 11.9277 34.4295C11.9277 32.3061 13.519 30.7386 16.1302 30.7386H18.0615C18.0615 29.5059 17.3816 28.8361 16.3617 28.8361C15.4503 28.8361 15.0886 29.2422 14.7704 29.5059M18.0615 33.3108V33.0899H16.5859C15.3346 33.0899 14.7704 33.6528 14.7704 34.4295C14.7704 35.2061 15.3346 35.769 16.1375 35.769C17.2731 35.769 18.0687 34.9852 18.0687 33.3108" fill="white"/>
<path d="M29.4104 26.6059C30.206 26.6059 30.7702 27.1617 30.7702 28.0595C30.7702 28.5084 30.546 28.8432 30.1988 29.2921L25.6564 35.4484V35.5624H29.6346C30.3145 35.5624 30.886 36.1253 30.886 36.7951C30.886 37.4649 30.3145 38.0278 29.6346 38.0278H23.3851C22.5895 38.0278 22.0181 37.4649 22.0181 36.5742C22.0181 36.1253 22.2423 35.7904 22.5895 35.3415L27.1319 29.1853V29.0713H23.4936C22.8137 29.0713 22.2423 28.5084 22.2423 27.8386C22.2423 27.1688 22.8137 26.6059 23.4936 26.6059H29.4032H29.4104Z" fill="white"/>
<path d="M42.4732 27.3897V23.3639C42.4732 22.4661 43.0446 21.9103 43.8331 21.9103C44.6215 21.9103 45.1929 22.4732 45.1929 23.3639V36.6739C45.1929 37.5717 44.6287 38.1275 43.8331 38.1275C42.6975 38.1275 42.4732 37.2297 42.4732 37.2297H42.3575C42.3575 37.2297 41.4461 38.3484 39.7463 38.3484C37.4751 38.3484 35.8838 36.7808 35.8838 33.5388V31.0806C35.8838 27.8386 37.4751 26.271 39.7463 26.271C41.4461 26.271 42.3575 27.3897 42.3575 27.3897H42.4732ZM42.4732 33.5459V31.0877C42.4732 29.6341 41.6776 28.8504 40.542 28.8504C39.4064 28.8504 38.6107 29.6341 38.6107 31.0877V33.5459C38.6107 34.9995 39.4064 35.7833 40.542 35.7833C41.6776 35.7833 42.4732 34.9995 42.4732 33.5459Z" fill="white"/>
<path d="M50.0829 33.432C50.0829 34.9995 50.8785 35.7833 52.0141 35.7833C53.1497 35.7833 53.5331 35.4484 53.8297 35.1135C54.213 34.6647 54.5096 34.3298 55.081 34.3298C55.7609 34.3298 56.3323 34.8927 56.3323 35.5624C56.3323 36.7951 54.741 38.3556 52.0141 38.3556C49.2872 38.3556 47.356 36.3391 47.356 33.546V31.0877C47.356 28.2946 49.403 26.2782 52.0141 26.2782C54.4011 26.2782 56.4408 28.2946 56.4408 31.0877V31.9855C56.4408 32.8833 55.8694 33.4391 55.081 33.4391H50.0829V33.432ZM52.0141 28.8433C50.8785 28.8433 50.0829 29.6271 50.0829 31.1946H53.7139C53.7139 29.6271 52.9183 28.8433 52.0069 28.8433" fill="white"/>
<path d="M63.37 34.7786C63.37 32.8762 57.8077 33.6599 57.8077 29.741C57.8077 27.7246 59.2832 26.271 61.8944 26.271C64.5056 26.271 65.9812 27.7246 65.9812 29.0712C65.9812 29.741 65.4097 30.3039 64.7298 30.3039C64.209 30.3039 63.8474 29.969 63.5942 29.741C63.2108 29.4061 62.7986 28.8432 61.8872 28.8432C60.9758 28.8432 60.5273 29.2921 60.5273 29.741C60.5273 31.6435 66.0897 30.8597 66.0897 34.7786C66.0897 37.016 64.7298 38.3626 62.0029 38.3626C59.276 38.3626 57.3447 36.5742 57.3447 35.3415C57.3447 34.6717 57.9089 34.1088 58.5961 34.1088C59.1675 34.1088 59.5074 34.4437 59.8474 34.8926C60.1006 35.2061 60.6431 35.7904 62.0029 35.7904C62.9143 35.7904 63.3627 35.3415 63.3627 34.7857" fill="white"/>
<path d="M73.6988 27.3897V23.3639C73.6988 22.4661 74.2702 21.9103 75.0586 21.9103C75.8471 21.9103 76.4185 22.4732 76.4185 23.3639V36.6739C76.4185 37.5717 75.8471 38.1275 75.0586 38.1275C73.923 38.1275 73.6988 37.2297 73.6988 37.2297H73.5831C73.5831 37.2297 72.6717 38.3484 70.9719 38.3484C68.7007 38.3484 67.1094 36.7808 67.1094 33.5388V31.0806C67.1094 27.8386 68.7007 26.271 70.9719 26.271C72.6717 26.271 73.5831 27.3897 73.5831 27.3897H73.6988ZM73.6988 33.5459V31.0877C73.6988 29.6341 72.9032 28.8504 71.7676 28.8504C70.6319 28.8504 69.8363 29.6341 69.8363 31.0877V33.5459C69.8363 34.9995 70.6319 35.7833 71.7676 35.7833C72.9032 35.7833 73.6988 34.9995 73.6988 33.5459Z" fill="white"/>
<path d="M81.3085 33.432C81.3085 34.9995 82.1041 35.7833 83.2397 35.7833C84.3753 35.7833 84.7587 35.4484 85.0552 35.1135C85.4386 34.6647 85.7352 34.3298 86.3066 34.3298C86.9865 34.3298 87.5579 34.8927 87.5579 35.5624C87.5579 36.7951 85.9666 38.3556 83.2397 38.3556C80.5128 38.3556 78.5815 36.3391 78.5815 33.546V31.0877C78.5815 28.2946 80.6285 26.2782 83.2397 26.2782C85.6267 26.2782 87.6664 28.2946 87.6664 31.0877V31.9855C87.6664 32.8833 87.1022 33.4391 86.3066 33.4391H81.3085V33.432ZM83.2397 28.8433C82.1041 28.8433 81.3085 29.6271 81.3085 31.1946H84.9395C84.9395 29.6271 84.1439 28.8433 83.2397 28.8433Z" fill="white"/>
<path d="M138.776 33.432C138.776 34.9995 139.572 35.7833 140.707 35.7833C141.843 35.7833 142.226 35.4484 142.523 35.1135C142.906 34.6647 143.203 34.3298 143.774 34.3298C144.454 34.3298 145.026 34.8927 145.026 35.5624C145.026 36.7951 143.434 38.3556 140.707 38.3556C137.981 38.3556 136.049 36.3391 136.049 33.546V31.0877C136.049 28.2946 138.096 26.2782 140.707 26.2782C143.094 26.2782 145.134 28.2946 145.134 31.0877V31.9855C145.134 32.8833 144.57 33.4391 143.774 33.4391H138.776V33.432ZM140.707 28.8433C139.572 28.8433 138.776 29.6271 138.776 31.1946H142.407C142.407 29.6271 141.612 28.8433 140.707 28.8433Z" fill="white"/>
<path d="M149.901 36.6811C149.901 37.5789 149.329 38.1346 148.541 38.1346C147.753 38.1346 147.181 37.5717 147.181 36.6811V23.371C147.181 22.4732 147.753 21.9174 148.541 21.9174C149.329 21.9174 149.901 22.4803 149.901 23.371V36.6811Z" fill="white"/>
<path d="M164.555 23.6988C164.779 22.801 165.351 22.2452 166.146 22.2452C166.942 22.2452 167.622 22.915 167.622 23.6988C167.622 24.1477 167.463 24.5966 167.39 24.8175L163.868 36.674C163.593 37.5718 162.732 38.4624 161.597 38.4624C160.461 38.4624 159.6 37.5646 159.325 36.674L155.803 24.8175C155.73 24.5966 155.571 24.1477 155.571 23.6988C155.571 22.915 156.251 22.2452 157.047 22.2452C157.843 22.2452 158.407 22.8081 158.638 23.6988L161.524 34.3298H161.662L164.548 23.6988H164.555Z" fill="white"/>
<path d="M170.342 22.0243C171.137 22.0243 171.817 22.6941 171.817 23.5919C171.817 24.4897 171.137 25.1595 170.342 25.1595C169.546 25.1595 168.866 24.4897 168.866 23.5919C168.866 22.6941 169.546 22.0243 170.342 22.0243ZM171.702 36.6811C171.702 37.5789 171.13 38.1346 170.342 38.1346C169.553 38.1346 168.975 37.5717 168.975 36.6811V27.9526C168.975 27.0548 169.546 26.499 170.342 26.499C171.137 26.499 171.702 27.0548 171.702 27.9526V36.6811Z" fill="white"/>
<path d="M176.475 33.432C176.475 34.9995 177.271 35.7833 178.407 35.7833C179.542 35.7833 179.926 35.4484 180.222 35.1135C180.606 34.6647 180.902 34.3298 181.474 34.3298C182.153 34.3298 182.725 34.8927 182.725 35.5624C182.725 36.7951 181.134 38.3556 178.407 38.3556C175.68 38.3556 173.749 36.3391 173.749 33.546V31.0877C173.749 28.2946 175.796 26.2782 178.407 26.2782C180.794 26.2782 182.833 28.2946 182.833 31.0877V31.9855C182.833 32.8833 182.262 33.4391 181.474 33.4391H176.475V33.432ZM178.407 28.8433C177.271 28.8433 176.475 29.6271 176.475 31.1946H180.107C180.107 29.6271 179.311 28.8433 178.399 28.8433" fill="white"/>
<path d="M191.13 31.0877C191.13 29.6342 190.334 28.8504 189.314 28.8504C188.295 28.8504 187.499 29.6342 187.499 31.0877V36.6811C187.499 37.5789 186.927 38.1347 186.139 38.1347C185.351 38.1347 184.772 37.5718 184.772 36.6811V27.9526C184.772 27.0548 185.343 26.4991 186.139 26.4991C187.275 26.4991 187.499 27.3968 187.499 27.3968H187.615C187.615 27.3968 188.526 26.2782 190.11 26.2782C192.266 26.2782 193.857 27.8457 193.857 31.0877V36.6811C193.857 37.5789 193.285 38.1347 192.49 38.1347C191.694 38.1347 191.13 37.5718 191.13 36.6811V31.0877Z" fill="white"/>
<path d="M200.323 38.3555C198.276 38.3555 196.685 36.788 196.685 34.2157V29.1781H196.569C195.889 29.1781 195.318 28.6224 195.318 27.9455C195.318 27.2686 195.889 26.7128 196.569 26.7128H196.685V25.1452C196.685 24.2474 197.256 23.6917 198.045 23.6917C198.833 23.6917 199.412 24.2474 199.412 25.1452V26.7128H201.112C201.792 26.7128 202.363 27.2757 202.363 27.9455C202.363 28.6152 201.792 29.1781 201.112 29.1781H199.412V34.2157C199.412 35.3344 199.868 35.7833 200.432 35.7833C200.996 35.7833 201.227 35.2275 201.907 35.2275C202.587 35.2275 203.159 35.7833 203.159 36.4602C203.159 37.358 202.16 38.3627 200.323 38.3627" fill="white"/>
<path d="M210.66 29.2921C209.98 29.2921 209.958 28.8432 209.068 28.8432C208.048 28.8432 207.253 29.627 207.253 31.0806V36.6739C207.253 37.5717 206.681 38.1275 205.886 38.1275C205.09 38.1275 204.526 37.5646 204.526 36.6739V27.9454C204.526 27.0477 205.097 26.4919 205.886 26.4919C207.021 26.4919 207.253 27.3897 207.253 27.3897H207.369C207.369 27.3897 208.28 26.271 209.864 26.271C211.115 26.271 211.911 27.0548 211.911 28.0594C211.911 28.7292 211.34 29.2921 210.66 29.2921Z" fill="white"/>
<path d="M214.746 33.432C214.746 34.9995 215.542 35.7833 216.677 35.7833C217.813 35.7833 218.196 35.4484 218.493 35.1135C218.876 34.6647 219.173 34.3298 219.744 34.3298C220.424 34.3298 220.995 34.8927 220.995 35.5624C220.995 36.7951 219.404 38.3556 216.677 38.3556C213.95 38.3556 212.019 36.3391 212.019 33.546V31.0877C212.019 28.2946 214.066 26.2782 216.677 26.2782C219.064 26.2782 221.104 28.2946 221.104 31.0877V31.9855C221.104 32.8833 220.533 33.4391 219.744 33.4391H214.746V33.432ZM216.677 28.8433C215.542 28.8433 214.746 29.6271 214.746 31.1946H218.377C218.377 29.6271 217.581 28.8433 216.67 28.8433" fill="white"/>
</g>
</svg>
